<?xml version="1.0" encoding="UTF-8" standalone="no"?>
<svg
   width="895"
   height="270"
   viewBox="0 0 895 270"
   fill="none"
   version="1.1"
   id="svg73"
   xmlns="http://www.w3.org/2000/svg"
   xmlns:svg="http://www.w3.org/2000/svg">
  <defs
     id="defs44">
    <linearGradient
       id="goldRim"
       x1="0"
       y1="0"
       x2="1"
       y2="1">
      <stop
         offset="0"
         stop-color="#7b4300"
         id="stop1" />
      <stop
         offset="0.10"
         stop-color="#f7c83e"
         id="stop2" />
      <stop
         offset="0.23"
         stop-color="#fff2a0"
         id="stop3" />
      <stop
         offset="0.37"
         stop-color="#b96a05"
         id="stop4" />
      <stop
         offset="0.52"
         stop-color="#f4b51d"
         id="stop5" />
      <stop
         offset="0.69"
         stop-color="#fff08a"
         id="stop6" />
      <stop
         offset="0.84"
         stop-color="#aa5e03"
         id="stop7" />
      <stop
         offset="1"
         stop-color="#f3cf62"
         id="stop8" />
    </linearGradient>
    <linearGradient
       id="goldRim2"
       x1="0"
       y1="0.15"
       x2="0.9"
       y2="0.85">
      <stop
         offset="0"
         stop-color="#fff4a8"
         id="stop9" />
      <stop
         offset="0.16"
         stop-color="#c87808"
         id="stop10" />
      <stop
         offset="0.34"
         stop-color="#f5c43b"
         id="stop11" />
      <stop
         offset="0.52"
         stop-color="#8b4900"
         id="stop12" />
      <stop
         offset="0.72"
         stop-color="#ffe27a"
         id="stop13" />
      <stop
         offset="1"
         stop-color="#b66c08"
         id="stop14" />
    </linearGradient>
    <linearGradient
       id="goldRoad"
       x1="0"
       y1="0"
       x2="1"
       y2="0.40">
      <stop
         offset="0"
         stop-color="#8c4a00"
         id="stop15" />
      <stop
         offset="0.15"
         stop-color="#f7c337"
         id="stop16" />
      <stop
         offset="0.34"
         stop-color="#fff2a2"
         id="stop17" />
      <stop
         offset="0.52"
         stop-color="#d48608"
         id="stop18" />
      <stop
         offset="0.70"
         stop-color="#fff2ad"
         id="stop19" />
      <stop
         offset="0.84"
         stop-color="#c67402"
         id="stop20" />
      <stop
         offset="1"
         stop-color="#f1bb2f"
         id="stop21" />
    </linearGradient>
    <linearGradient
       id="silverP"
       x1="0.06"
       y1="0"
       x2="0.9"
       y2="1">
      <stop
         offset="0"
         stop-color="#ffffff"
         id="stop22" />
      <stop
         offset="0.18"
         stop-color="#f9f9f9"
         id="stop23" />
      <stop
         offset="0.48"
         stop-color="#c3c4c7"
         id="stop24" />
      <stop
         offset="0.65"
         stop-color="#f6f6f6"
         id="stop25" />
      <stop
         offset="0.83"
         stop-color="#d2d3d6"
         id="stop26" />
      <stop
         offset="1"
         stop-color="#8b8d92"
         id="stop27" />
    </linearGradient>
    <linearGradient
       id="silverStem"
       x1="0.1"
       y1="0"
       x2="0.8"
       y2="1">
      <stop
         offset="0"
         stop-color="#ffffff"
         id="stop28" />
      <stop
         offset="0.34"
         stop-color="#ececed"
         id="stop29" />
      <stop
         offset="0.63"
         stop-color="#b6b7b9"
         id="stop30" />
      <stop
         offset="1"
         stop-color="#fefefe"
         id="stop31" />
    </linearGradient>
    <linearGradient
       id="shieldBase"
       x1="0.18"
       y1="0"
       x2="0.88"
       y2="1">
      <stop
         offset="0"
         stop-color="#263341"
         id="stop32" />
      <stop
         offset="0.23"
         stop-color="#141d28"
         id="stop33" />
      <stop
         offset="0.56"
         stop-color="#020811"
         id="stop34" />
      <stop
         offset="0.84"
         stop-color="#08111d"
         id="stop35" />
      <stop
         offset="1"
         stop-color="#162433"
         id="stop36" />
    </linearGradient>
    <radialGradient
       id="shieldLight"
       cx="31%"
       cy="18%"
       r="78%">
      <stop
         offset="0"
         stop-color="#8d9caf"
         stop-opacity="0.27"
         id="stop37" />
      <stop
         offset="0.45"
         stop-color="#42505e"
         stop-opacity="0.10"
         id="stop38" />
      <stop
         offset="1"
         stop-color="#000"
         stop-opacity="0"
         id="stop39" />
    </radialGradient>
    <linearGradient
       id="dividerGold"
       x1="0"
       y1="0"
       x2="1"
       y2="0">
      <stop
         offset="0"
         stop-color="#a86a12"
         id="stop40" />
      <stop
         offset="0.25"
         stop-color="#efb521"
         id="stop41" />
      <stop
         offset="0.50"
         stop-color="#fff0a0"
         id="stop42" />
      <stop
         offset="0.73"
         stop-color="#c07808"
         id="stop43" />
      <stop
         offset="1"
         stop-color="#e1ad30"
         id="stop44" />
    </linearGradient>
    <clipPath
       id="shieldClip">
      <path
         d="M225 38 L414 102 L414 238 C414 354 352 432 225 493 C98 432 36 354 36 238 L36 102 Z"
         id="path44" />
    </clipPath>
    <filter
       id="softShadow"
       x="-0.019378881"
       y="-0.02557377"
       width="1.0387578"
       height="1.0511475">
      <feGaussianBlur
         stdDeviation="2.6"
         id="feGaussianBlur44" />
    </filter>
  </defs>
  <!-- full shield preserved; not cropped -->
  <g
     transform="translate(0 2) scale(0.50)"
     id="g72">
    <path
       d="M225 4 L442 78 L442 236 C442 376 366 466 225 532 C84 466 8 376 8 236 L8 78 Z"
       fill="url(#goldRim)"
       stroke="#8a4b00"
       stroke-width="2.4"
       stroke-linejoin="round"
       id="path45" />
    <path
       d="M225 15 L430 84 L430 235 C430 366 359 451 225 515 C91 451 20 366 20 235 L20 84 Z"
       fill="#090b0e"
       stroke="#fff0a0"
       stroke-width="2.2"
       stroke-opacity="0.80"
       id="path46" />
    <path
       d="M225 25 L422 92 L422 237 C422 361 355 443 225 505 C95 443 28 361 28 237 L28 92 Z"
       fill="url(#goldRim2)"
       stroke="#935100"
       stroke-width="2"
       id="path47" />
    <path
       d="M225 37 L414 101 L414 238 C414 354 352 432 225 493 C98 432 36 354 36 238 L36 101 Z"
       fill="url(#shieldBase)"
       stroke="#05070a"
       stroke-width="5"
       id="path48" />
    <path
       d="M225 49 L401 108 L401 238 C401 344 344 417 225 476 C106 417 49 344 49 238 L49 108 Z"
       fill="none"
       stroke="#5b6c82"
       stroke-width="2.2"
       stroke-opacity="0.62"
       id="path49" />
    <path
       d="M225 38 L414 102 L414 238 C414 354 352 432 225 493 C98 432 36 354 36 238 L36 102 Z"
       fill="url(#shieldLight)"
       id="path50" />
    <g
       clip-path="url(#shieldClip)"
       id="g53">
      <path
         d="M25 75 L223 34 L231 300 L34 405 Z"
         fill="#778796"
         opacity="0.10"
         id="path51" />
      <path
         d="M223 34 L430 90 L391 392 L231 300 Z"
         fill="#000"
         opacity="0.26"
         id="path52" />
      <path
         d="M25 405 L231 300 L391 392 L225 510 Z"
         fill="#1f2b35"
         opacity="0.16"
         id="path53" />
    </g>
    <g
       transform="translate(5 5)"
       opacity="0.60"
       filter="url(#softShadow)"
       clip-path="url(#shieldClip)"
       id="g55">
      <path
         d="M110 116 L319 116 C372 116 404 143 404 186 C404 240 367 271 307 271 L222 271 L243 230 L308 230 C336 230 352 218 356 194 C359 169 343 159 313 159 L154 159 Z"
         fill="#000"
         id="path54" />
      <path
         d="M154 172 L223 172 L160 342 L82 360 Z"
         fill="#000"
         id="path55" />
    </g>
    <g
       clip-path="url(#shieldClip)"
       id="g64">
      <path
         d="M80 117 L168 118 L203 123 L126 128 Z"
         fill="url(#silverP)"
         id="path56" />
      <path
         d="M69 136 L167 130 L194 137 L117 146 Z"
         fill="url(#silverP)"
         id="path57" />
      <path
         d="M73 155 L165 145 L187 152 L115 164 Z"
         fill="url(#silverP)"
         id="path58" />
      <path
         d="M112 116 L319 116 C371 116 403 143 403 185 C403 239 366 271 307 271 L223 271 L244 231 L307 231 C334 231 350 218 353 194 C356 171 341 162 313 162 L154 162 Z"
         fill="url(#silverP)"
         stroke="#d8d8d8"
         stroke-width="1.4"
         stroke-linejoin="round"
         id="path59" />
      <path
         d="M117 120 L318 120 C365 120 394 144 395 181"
         fill="none"
         stroke="#fff"
         stroke-opacity="0.56"
         stroke-width="3.0"
         stroke-linecap="round"
         id="path60" />
      <path
         d="M247 235 L308 235 C336 235 353 219 357 196"
         fill="none"
         stroke="#74787e"
         stroke-opacity="0.55"
         stroke-width="2.2"
         id="path61" />
      <path
         d="M154 174 L223 174 L157 344 L80 361 Z"
         fill="url(#silverStem)"
         stroke="#c7c8ca"
         stroke-width="1.4"
         id="path62" />
      <path
         d="M159 179 L217 179"
         stroke="#fff"
         stroke-opacity="0.72"
         stroke-width="2.2"
         id="path63" />
      <path
         d="M83 357 L158 340"
         stroke="#696d72"
         stroke-opacity="0.65"
         stroke-width="2.2"
         id="path64" />
    </g>
    <g
       clip-path="url(#shieldClip)"
       id="g70">
      <path
         d="M44 401 C130 361 245 323 414 296 L414 309 C286 330 176 369 73 424 Z"
         fill="#000"
         opacity="0.36"
         transform="translate(2 4)"
         id="path65" />
      <path
         d="M44 401 C130 361 245 323 414 296 L414 309 C286 330 176 369 73 424 Z"
         fill="url(#goldRoad)"
         stroke="#6f3c00"
         stroke-width="1.3"
         id="path66" />
      <path
         d="M52 401 C153 356 266 323 412 304"
         fill="none"
         stroke="#fff4a0"
         stroke-opacity="0.80"
         stroke-width="2.0"
         id="path67" />
      <path
         d="M72 451 C163 382 271 336 414 307 L414 321 C313 352 227 402 137 479 Z"
         fill="#000"
         opacity="0.38"
         transform="translate(2 4)"
         id="path68" />
      <path
         d="M72 451 C163 382 271 336 414 307 L414 321 C313 352 227 402 137 479 Z"
         fill="url(#goldRoad)"
         stroke="#744000"
         stroke-width="1.35"
         id="path69" />
      <path
         d="M80 450 C175 383 281 345 411 314"
         fill="none"
         stroke="#fff2a0"
         stroke-opacity="0.80"
         stroke-width="2.1"
         id="path70" />
    </g>
    <path
       d="M225 8 L436 80 L436 235 C436 370 363 458 225 523"
       fill="none"
       stroke="#fff4a4"
       stroke-opacity="0.72"
       stroke-width="3"
       stroke-linecap="round"
       id="path71" />
    <path
       d="M14 84 L14 235 C14 370 87 458 225 523"
       fill="none"
       stroke="#f4b21d"
       stroke-opacity="0.70"
       stroke-width="2.3"
       id="path72" />
  </g>
  <!-- vertically centered wordmark block -->
  <g
     transform="translate(162.4 47.3) scale(1.2 1.32)"
     id="g73">
    <path
       d="m 85.664551,36.994141 v 15.392578 l 8.057617,0.975586 V 56 H 68.501465 v -2.637695 l 5.745117,-0.975586 V 11.123047 L 68.031738,10.183594 V 7.5458984 H 89.38623 q 10.297852,0 15.39258,3.4687496 5.09472,3.432618 5.09472,10.803711 0,15.175782 -17.705073,15.175782 z M 98.238769,21.890625 q 0,-5.78125 -2.167968,-8.057617 -2.131836,-2.3125 -7.551758,-2.3125 h -2.854492 v 21.499023 h 2.999023 q 5.022461,0 7.298828,-2.529297 2.276367,-2.529297 2.276367,-8.599609 z M 132.0667,35.476562 v 16.910157 l 6.21484,0.975586 V 56 h -23.37793 v -2.637695 l 5.74512,-0.975586 V 11.123047 l -6.21484,-0.939453 V 7.5458984 h 23.16113 q 10.69531,0 15.9707,3.2880856 5.27539,3.288086 5.27539,10.261719 0,10.40625 -9.75586,13.369141 l 12.93555,17.921875 5.23926,0.975586 V 56 H 151.57842 L 138.06475,35.476562 Z m 15.50098,-14.308593 q 0,-5.419922 -2.24024,-7.515625 -2.24023,-2.131836 -8.20215,-2.131836 h -5.05859 v 19.981445 h 5.23926 q 5.56445,0 7.91308,-2.3125 2.34864,-2.3125 2.34864,-8.021484 z m 23.85527,10.550781 q 0,-24.7148438 25.18457,-24.7148438 12.42969,0 18.78906,6.2871098 6.35938,6.250976 6.35938,18.427734 0,12.321289 -6.43164,18.680664 -6.43164,6.323242 -18.7168,6.323242 -12.24902,0 -18.7168,-6.323242 -6.46777,-6.323242 -6.46777,-18.680664 z m 11.99609,0 q 0,11.526367 3.14356,16.476562 3.17969,4.914063 10.04492,4.914063 6.8291,0 9.97266,-4.950195 3.17968,-4.950196 3.17968,-16.44043 0,-11.454102 -3.17968,-16.259766 -3.14356,-4.805664 -9.97266,-4.805664 -6.86523,0 -10.04492,4.805664 -3.14356,4.805664 -3.14356,16.259766 z m 93.95294,21.751953 q -4.48047,1.481445 -10.40625,2.384766 -5.92578,0.867187 -10.65918,0.867187 -7.91309,0 -13.83887,-2.890625 -5.88965,-2.890625 -9.10547,-8.418945 -3.17968,-5.52832 -3.17968,-13.080078 0,-12.176758 6.9375,-18.75293 6.97363,-6.5761718 19.87304,-6.5761718 3.14356,0 5.70899,0.2529297 2.60156,0.2529297 4.84179,0.6865235 2.24024,0.4335937 8.23828,2.1318356 v 11.128907 h -3.25195 l -0.86719,-6.28711 q -2.85449,-1.951172 -6.28711,-3.035156 -3.43261,-1.083984 -7.08203,-1.083984 -8.41894,0 -12.28515,5.239257 -3.83008,5.239258 -3.83008,16.223633 0,10.225586 4.04687,15.500977 4.08301,5.239258 11.7793,5.239258 4.19141,0 7.98535,-1.264649 V 37.716797 l -6.21484,-0.939453 v -2.673828 h 22.33008 v 2.673828 l -4.7334,0.939453 z m 26.85429,-17.994141 v 16.910157 l 6.21485,0.975586 V 56 h -23.37793 v -2.637695 l 5.74511,-0.975586 V 11.123047 l -6.21484,-0.939453 V 7.5458984 h 23.16113 q 10.69532,0 15.97071,3.2880856 5.27539,3.288086 5.27539,10.261719 0,10.40625 -9.75586,13.369141 l 12.93554,17.921875 5.23926,0.975586 V 56 H 323.73799 L 310.22432,35.476562 Z m 15.50098,-14.308593 q 0,-5.419922 -2.24024,-7.515625 -2.24023,-2.131836 -8.20214,-2.131836 h -5.0586 v 19.981445 h 5.23926 q 5.56445,0 7.91309,-2.3125 2.34863,-2.3125 2.34863,-8.021484 z m 21.50664,32.194336 6.21484,-0.975586 V 11.123047 l -6.21484,-0.939453 V 7.5458984 h 41.26367 V 19.867187 h -3.28809 l -1.15625,-7.84082 q -4.04687,-0.505859 -11.70703,-0.505859 h -7.51562 v 17.777344 h 12.68261 l 1.12012,-5.347657 h 3.21582 v 14.886719 h -3.21582 l -1.12012,-5.492187 h -12.68261 v 18.680664 h 9.1416 q 9.32226,0 12.21289,-0.578125 l 2.05957,-8.960938 h 3.28808 L 384.84619,56 h -43.6123 z m 53.23126,-12.212891 h 3.17969 l 1.62597,7.768555 q 1.51758,1.770508 4.58887,2.96289 3.07129,1.192383 6.35937,1.192383 10.37012,0 10.37012,-8.527344 0,-2.673828 -1.9873,-4.516601 -1.95117,-1.842774 -6.17871,-3.288086 -6.21485,-2.05957 -8.96094,-3.324219 -2.70996,-1.300781 -4.58887,-3.035156 -1.8789,-1.734375 -2.99902,-4.191406 -1.12012,-2.493164 -1.12012,-6.106446 0,-6.395507 4.33594,-9.719726 4.37207,-3.3603518 12.75488,-3.3603518 6.07031,0 13.44141,1.553711 V 20.083984 h -3.21582 l -1.62598,-6.648437 q -3.68555,-2.673828 -8.59961,-2.673828 -4.44433,0 -6.8291,1.662109 -2.38477,1.625977 -2.38477,5.022461 0,2.420898 1.98731,4.155273 1.9873,1.698243 6.21484,3.035157 8.27442,2.709961 11.34571,4.733398 3.10742,1.987305 4.73339,4.950195 1.62598,2.962891 1.62598,6.973633 0,15.428711 -18.1748,15.428711 -4.15528,0 -8.49121,-0.722656 -4.29981,-0.686523 -7.40723,-1.842773 z m 42.35525,0 h 3.17969 l 1.62598,7.768555 q 1.51758,1.770508 4.58887,2.96289 3.07128,1.192383 6.35937,1.192383 10.37012,0 10.37012,-8.527344 0,-2.673828 -1.98731,-4.516601 -1.95117,-1.842774 -6.17871,-3.288086 -6.21484,-2.05957 -8.96094,-3.324219 -2.70996,-1.300781 -4.58886,-3.035156 -1.87891,-1.734375 -2.99903,-4.191406 -1.12011,-2.493164 -1.12011,-6.106446 0,-6.395507 4.33593,-9.719726 4.37207,-3.3603518 12.75489,-3.3603518 6.07031,0 13.4414,1.553711 V 20.083984 h -3.21582 l -1.62597,-6.648437 q -3.68555,-2.673828 -8.59961,-2.673828 -4.44434,0 -6.8291,1.662109 -2.38477,1.625977 -2.38477,5.022461 0,2.420898 1.9873,4.155273 1.98731,1.698243 6.21485,3.035157 8.27441,2.709961 11.3457,4.733398 3.10742,1.987305 4.7334,4.950195 1.62598,2.962891 1.62598,6.973633 0,15.428711 -18.17481,15.428711 -4.15527,0 -8.49121,-0.722656 -4.2998,-0.686523 -7.40723,-1.842773 z m 58.50666,11.237305 6.21484,0.939453 V 56 h -23.81152 v -2.673828 l 6.21484,-0.939453 V 11.15918 l -6.21484,-0.975586 V 7.5458984 h 23.81152 v 2.6376956 l -6.21484,0.975586 z M 557.84442,7.5458984 v 2.6376956 l -4.58887,0.975586 -18.71679,45.960937 h -4.80567 L 510.04071,11.15918 506.0661,10.183594 V 7.5458984 h 21.06543 v 2.6376956 l -5.02246,0.975586 13.62207,31.760742 12.71875,-31.760742 -4.87793,-0.975586 V 7.5458984 Z m 3.29572,45.8164066 6.21484,-0.975586 V 11.123047 l -6.21484,-0.939453 V 7.5458984 h 41.26367 V 19.867187 h -3.28809 l -1.15625,-7.84082 q -4.04687,-0.505859 -11.70703,-0.505859 h -7.51562 v 17.777344 h 12.68261 l 1.12012,-5.347657 h 3.21582 v 14.886719 h -3.21582 l -1.12012,-5.492187 h -12.68261 v 18.680664 h 9.1416 q 9.32226,0 12.21289,-0.578125 l 2.05957,-8.960938 h 3.28808 L 604.75244,56 h -43.6123 z"
       id="text72"
       style="font-weight:700;font-size:74px;font-family:Georgia, 'Times New Roman', serif;letter-spacing:1.2;text-anchor:middle;fill:#F5F3EE"
       aria-label="PROGRESSIVE" />
    <!-- compact divider with clear small side lines around center mark -->
    <!-- Browser-safe centered divider: real filled bars, not zero-height gradient strokes -->
    <rect
       x="156"
       y="76.25"
       width="157"
       height="3.5"
       rx="363"
       fill="#D9A52A"
       id="rect72" />
    <rect
       x="363"
       y="76.25"
       width="157"
       height="3.5"
       rx="363"
       fill="#D9A52A"
       id="rect73" />
    <path
       d="M327 78 L338 67 L349 78 L338 89 Z"
       fill="url(#dividerGold)"
       id="path73" />
    <path
       d="m 81.385648,106.47168 q -3.770508,0 -5.865235,2.43311 -2.094726,2.41699 -2.094726,6.63867 0,4.17334 2.175293,6.71924 2.191406,2.52978 5.913574,2.52978 4.769531,0 7.17041,-4.72119 l 2.513672,1.25684 q -1.401855,2.93261 -3.947754,4.46337 -2.529785,1.53077 -5.881348,1.53077 -3.432128,0 -5.9458,-1.41797 -2.497559,-1.43409 -3.818848,-4.07666 -1.305176,-2.65869 -1.305176,-6.28418 0,-5.43018 2.932617,-8.50782 2.932618,-3.07763 8.121094,-3.07763 3.625488,0 6.058594,1.41797 2.433105,1.41797 3.577148,4.20556 l -2.916504,0.9668 q -0.78955,-1.98193 -2.545898,-3.0293 -1.740234,-1.04736 -4.141113,-1.04736 z M 119.91846,127 V 116.47803 H 107.64014 V 127 h -3.07764 v -22.70361 h 3.07764 v 9.60351 h 12.27832 v -9.60351 h 3.07764 V 127 Z m 33.97276,0 -2.59424,-6.63867 H 140.95225 L 138.3419,127 h -3.19043 l 9.26514,-22.70361 h 3.49658 L 157.03331,127 Z m -7.7666,-20.3833 -0.14502,0.45117 q -0.40284,1.3374 -1.19239,3.43213 l -2.90039,7.46045 h 8.4917 l -2.9165,-7.49268 q -0.45117,-1.11181 -0.90235,-2.51367 z m 32.15194,20.70557 q -2.78759,0 -4.86621,-1.01514 -2.07861,-1.01514 -3.22265,-2.94873 -1.14405,-1.9336 -1.14405,-4.6084 v -14.45361 h 3.07764 v 14.1958 q 0,3.10986 1.5791,4.72119 1.5791,1.61133 4.56006,1.61133 3.06152,0 4.75342,-1.65967 1.70801,-1.67578 1.70801,-4.88233 v -13.98632 h 3.06152 v 14.16357 q 0,2.75537 -1.17627,4.75342 -1.16016,1.99805 -3.30322,3.06152 -2.12696,1.04737 -5.02735,1.04737 z m 27.23741,-20.51221 v 8.44336 h 12.66504 v 2.5459 H 205.51397 V 127 h -3.07763 v -22.70361 h 16.12939 v 2.51367 z m 29.55771,0 v 8.44336 h 12.66504 v 2.5459 H 235.07168 V 127 h -3.07763 v -22.70361 h 16.12939 v 2.51367 z M 261.55175,127 v -22.70361 h 17.2251 v 2.51367 h -14.14746 v 7.2832 h 13.18067 v 2.48145 h -13.18067 v 7.91162 H 279.4375 V 127 Z m 40.48253,0.32227 q -2.78759,0 -4.86621,-1.01514 -2.07861,-1.01514 -3.22265,-2.94873 -1.14405,-1.9336 -1.14405,-4.6084 v -14.45361 h 3.07764 v 14.1958 q 0,3.10986 1.5791,4.72119 1.5791,1.61133 4.56006,1.61133 3.06152,0 4.75342,-1.65967 1.70801,-1.67578 1.70801,-4.88233 v -13.98632 h 3.06152 v 14.16357 q 0,2.75537 -1.17627,4.75342 -1.16016,1.99805 -3.30322,3.06152 -2.12696,1.04737 -5.02735,1.04737 z M 342.24287,127 l -5.89746,-9.42627 h -7.07373 V 127 h -3.07764 v -22.70361 h 10.68311 q 3.83496,0 5.91357,1.72412 2.09473,1.70801 2.09473,4.76953 0,2.52978 -1.48242,4.25391 -1.46631,1.72412 -4.06055,2.17529 L 345.78779,127 Z m -0.45117,-16.17773 q 0,-1.98194 -1.35352,-3.01319 -1.3374,-1.04736 -3.86718,-1.04736 h -7.29932 v 8.37891 h 7.42822 q 2.43311,0 3.7544,-1.12793 1.3374,-1.14405 1.3374,-3.19043 z m 53.99141,9.90966 q 0,3.14209 -2.46533,4.86621 -2.44922,1.72413 -6.9126,1.72413 -8.29834,0 -9.61963,-5.76856 l 2.98096,-0.59619 q 0.51562,2.04639 2.1914,3.01318 1.67578,0.95069 4.56006,0.95069 2.98096,0 4.59229,-1.01514 1.62744,-1.03125 1.62744,-3.01318 0,-1.11182 -0.51563,-1.80469 -0.49951,-0.69287 -1.41797,-1.14404 -0.91845,-0.45118 -2.1914,-0.75733 -1.27295,-0.30615 -2.81983,-0.66064 -2.69091,-0.59619 -4.09277,-1.19239 -1.38574,-0.59619 -2.19141,-1.32128 -0.80566,-0.74122 -1.24072,-1.72413 -0.41894,-0.98291 -0.41894,-2.25586 0,-2.9165 2.22363,-4.4956 2.23975,-1.5791 6.39697,-1.5791 3.86719,0 5.91358,1.19238 2.04638,1.17627 2.86816,4.02832 l -3.0293,0.53174 q -0.49951,-1.80469 -1.90136,-2.61035 -1.40186,-0.82178 -3.8833,-0.82178 -2.72315,0 -4.15723,0.90234 -1.43408,0.90235 -1.43408,2.69092 0,1.04737 0.54785,1.74024 0.56396,0.67675 1.61133,1.16015 1.04736,0.46729 4.17334,1.16016 1.04736,0.2417 2.07861,0.49951 1.04736,0.2417 1.99805,0.59619 0.95068,0.33838 1.77246,0.80567 0.83789,0.46728 1.45019,1.14404 0.61231,0.67676 0.95069,1.59521 0.35449,0.91846 0.35449,2.15918 z M 409.40478,127 v -22.70361 h 17.2251 v 2.51367 h -14.14746 v 7.2832 h 13.18066 v 2.48145 h -13.18066 v 7.91162 h 14.8081 V 127 Z m 47.45957,0 -5.89746,-9.42627 h -7.07373 V 127 h -3.07764 v -22.70361 h 10.6831 q 3.83496,0 5.91358,1.72412 2.09472,1.70801 2.09472,4.76953 0,2.52978 -1.48242,4.25391 -1.46631,1.72412 -4.06054,2.17529 L 460.40927,127 Z m -0.45118,-16.17773 q 0,-1.98194 -1.35351,-3.01319 -1.3374,-1.04736 -3.86719,-1.04736 h -7.29931 v 8.37891 h 7.42822 q 2.4331,0 3.75439,-1.12793 1.3374,-1.14405 1.3374,-3.19043 z M 483.34442,127 h -3.19043 l -9.26514,-22.70361 h 3.23877 l 6.28418,15.98437 1.35352,4.01221 1.35351,-4.01221 6.25196,-15.98437 h 3.23877 z m 21.85559,0 v -22.70361 h 3.07764 V 127 Z m 28.28476,-20.52832 q -3.77051,0 -5.86524,2.43311 -2.09472,2.41699 -2.09472,6.63867 0,4.17334 2.17529,6.71924 2.19141,2.52978 5.91358,2.52978 4.76953,0 7.17041,-4.72119 l 2.51367,1.25684 q -1.40186,2.93261 -3.94776,4.46337 -2.52978,1.53077 -5.88134,1.53077 -3.43213,0 -5.94581,-1.41797 -2.49755,-1.43409 -3.81884,-4.07666 -1.30518,-2.65869 -1.30518,-6.28418 0,-5.43018 2.93262,-8.50782 2.93262,-3.07763 8.12109,-3.07763 3.62549,0 6.0586,1.41797 2.4331,1.41797 3.57714,4.20556 l -2.9165,0.9668 q -0.78955,-1.98193 -2.5459,-3.0293 -1.74023,-1.04736 -4.14111,-1.04736 z M 556.66162,127 v -22.70361 h 17.2251 v 2.51367 h -14.14747 v 7.2832 h 13.18067 v 2.48145 h -13.18067 v 7.91162 h 14.80811 V 127 Z m 49.1998,-6.26807 q 0,3.14209 -2.46534,4.86621 -2.44921,1.72413 -6.91259,1.72413 -8.29834,0 -9.61963,-5.76856 l 2.98096,-0.59619 q 0.51562,2.04639 2.1914,3.01318 1.67578,0.95069 4.56006,0.95069 2.98096,0 4.59229,-1.01514 1.62744,-1.03125 1.62744,-3.01318 0,-1.11182 -0.51563,-1.80469 -0.49951,-0.69287 -1.41797,-1.14404 -0.91845,-0.45118 -2.1914,-0.75733 -1.27295,-0.30615 -2.81983,-0.66064 -2.69092,-0.59619 -4.09277,-1.19239 -1.38574,-0.59619 -2.19141,-1.32128 -0.80566,-0.74122 -1.24072,-1.72413 -0.41895,-0.98291 -0.41895,-2.25586 0,-2.9165 2.22364,-4.4956 2.23974,-1.5791 6.39697,-1.5791 3.86719,0 5.91357,1.19238 2.04639,1.17627 2.86817,4.02832 l -3.0293,0.53174 q -0.49951,-1.80469 -1.90137,-2.61035 -1.40185,-0.82178 -3.8833,-0.82178 -2.72314,0 -4.15722,0.90234 -1.43408,0.90235 -1.43408,2.69092 0,1.04737 0.54785,1.74024 0.56396,0.67675 1.61132,1.16015 1.04737,0.46729 4.17334,1.16016 1.04737,0.2417 2.07862,0.49951 1.04736,0.2417 1.99804,0.59619 0.95069,0.33838 1.77247,0.80567 0.83789,0.46728 1.45019,1.14404 0.61231,0.67676 0.95068,1.59521 0.3545,0.91846 0.3545,2.15918 z"
       id="text73"
       style="font-size:33px;font-family:Arial, Helvetica, sans-serif;letter-spacing:9.4;text-anchor:middle;fill:#F5F3EE"
       aria-label="CHAUFFEUR SERVICES" />
  </g>
</svg>
